/* XPM */
static char *teeworlds_2[] = {
/* columns rows colors chars-per-pixel */
"48 48 175 2 ",
"   c #015800F7003A",
".  c #094F067B0130",
"X  c #0CC509B203CC",
"o  c #0E8F0C8D0848",
"O  c #11FB0CC70303",
"+  c #169610100202",
"@  c #1ABB129202E3",
"#  c #151511110909",
"$  c #1D1D17170A0A",
"%  c #1E1E18180E0E",
"&  c #21A216960283",
"*  c #248B19800505",
"=  c #2B211CA20360",
"-  c #24241E1E1111",
";  c #292920200D0D",
":  c #345F23CE0404",
">  c #3C3C28C20336",
",  c #353525250909",
"<  c #2BAC23A41394",
"1  c #2B2B25251818",
"2  c #36362B2B1414",
"3  c #38382F2F1F1F",
"4  c #3D3D31311A1A",
"5  c #383831312222",
"6  c #42422E2E0505",
"7  c #464630300303",
"8  c #4ACA32320202",
"9  c #505036360202",
"0  c #5C1C3D3D03C4",
"q  c #56563B3B0B0B",
"w  c #464637371B1B",
"e  c #424237372323",
"r  c #44C53BBC29AA",
"t  c #5CDD40400E0E",
"y  c #5C5C41411212",
"u  c #64E542C20404",
"i  c #6A6A46C70182",
"p  c #6D6D49490303",
"a  c #74744D4D0202",
"s  c #70704C4C0F0F",
"d  c #7E7E54540303",
"f  c #7DFE54540B0B",
"g  c #68684B4B1616",
"h  c #4D4D40402626",
"j  c #4D4D41412B2B",
"k  c #5F5F4B4B2323",
"l  c #515144442A2A",
"z  c #5C5C4C0C2BEC",
"x  c #5D5D4E4E3232",
"c  c #666654542E2E",
"v  c #6A6A59033636",
"b  c #6F6F5E5E3E3E",
"n  c #747461613D3D",
"m  c #747463E443C4",
"M  c #747465654949",
"N  c #808055550000",
"B  c #848458580101",
"V  c #8A8A5C5C0000",
"C  c #818156560A0A",
"Z  c #87875E5E1414",
"A  c #85855E5E1B1B",
"S  c #909060600101",
"D  c #9A9A66660000",
"F  c #961662E30A8B",
"G  c #898961611919",
"H  c #909061611010",
"J  c #9B9B6B6B1717",
"K  c #A8A86F6F0101",
"L  c #A0A06B6B0E0E",
"P  c #AC2C72720000",
"I  c #B7B77A7A0101",
"U  c #BDBD7D7D0000",
"Y  c #B5B576760909",
"T  c #A1A16F6F1919",
"R  c #A2A272721F1F",
"E  c #AAAA76761D1D",
"W  c #ABAB79FA1D9E",
"Q  c #B7B77A7A1111",
"!  c #A2A273732121",
"~  c #ADAD7B7B2323",
"^  c #B6B67F7F2121",
"/  c #A1A17E7E3838",
"(  c #C0C07F7F0D0D",
")  c #83836DEE4343",
"_  c #929278784444",
"`  c #828272725050",
"'  c #BDBD80801414",
"]  c #CF4F89090000",
"[  c #C69382B50CDA",
"{  c #C94985050E8F",
"}  c #D3D38C360000",
"|  c #D8D88F8F0000",
" . c #C5C585051494",
".. c #CB8B874710D1",
"X. c #CEAC8A6813AD",
"o. c #C7C788881919",
"O. c #D18E8D4A16A7",
"+. c #D3938F4F18B9",
"@. c #D67792331B5E",
"#. c #D9D995951E81",
"$. c #E76799190000",
"%. c #EBEB9BDB0000",
"&. c #F574A2220000",
"*. c #FC3BA6E60000",
"=. c #FEFEA8B40027",
"-. c #FE64AC450C3F",
";. c #FEFEAEEE1292",
":. c #FEFEB0B01717",
">. c #FEFEB3331E1E",
",. c #C3C38A8A24A5",
"<. c #D4D492922020",
"1. c #DB6997252076",
"2. c #DDDD99A72278",
"3. c #E18B9D4725F3",
"4. c #E3639F4928A9",
"5. c #E666A2342B06",
"6. c #EA3FA5FB2E84",
"7. c #FEFEB43321A2",
"8. c #FEFEB7772B6B",
"9. c #FEFEB8B82F2F",
"0. c #EBEBA7A73086",
"q. c #EE87AA433300",
"w. c #F0F0ACAC3535",
"e. c #EDEDB1B13B3B",
"r. c #FEFEBABA348A",
"t. c #FEFEBD563C09",
"y. c #9E9E84844F4F",
"u. c #9D9D86865656",
"i. c #9D9D86865959",
"p. c #B4338F0F43C4",
"a. c #AEAE8F8F5353",
"s. c #B0B095955D5D",
"d. c #AFAF95956161",
"f. c #AFAF99996A6A",
"g. c #B5B599996262",
"h. c #BEBEA0A06363",
"j. c #C8C8A3A35A5A",
"k. c #D3D3ABAB5B5B",
"l. c #FEFEBF694298",
"z. c #C0C0A2A26666",
"x. c #CDCDAB00650F",
"c. c #CCCCAD2D6CED",
"v. c #DDDDB5B56666",
"b. c #DBDBB7B76E6E",
"n. c #C0C0AAAA7B7B",
"m. c #CECEB1B17777",
"M. c #D7D7B6B67575",
"N. c #DD5DBABA7676",
"B. c #DC86BCBC7C26",
"V. c #EFEFBFBF6060",
"C. c #FEFEC2974C77",
"Z. c #FEFEC5455353",
"A. c #FEDCC79A5A70",
"S. c #FEFEC8FD5E17",
"D. c #FEFECB01641F",
"F. c #FEFECDBE6C01",
"G. c #E7E7C0C07373",
"H. c #EDEDC56F7474",
"J. c #EA6AC5C57C7C",
"K. c #EEEEC9C97D7D",
"L. c #FEECCFAC71E0",
"P. c #FEFED12E75C9",
"I. c #FEF4D31E7BD7",
"U. c #EEEECACA8080",
"Y. c #FEE7D5DD83CB",
"T. c #F5F5D1D18A8A",
"R. c #FEFED7D7897D",
"E. c #FEFED94C8DB2",
"W. c #EBEBCDCD9191",
"Q. c #F5F5D3D39090",
"!. c #FEFEDB79940E",
"~. c #FEE1DE039B6B",
"^. c #FEFEDFDFA0F6",
"/. c #FEFEE0E0A3A3",
"(. c None",
/* pixels */
"(.(.(.(.(.(.(.(.(.(.(.(.(.(.(.(.(.(.(.(.(.(.(.(.(.(.(.(.(.(.(.(.(.(.(.(.(.(.(.(.(.(.(.(.(.(.(.(.",
"(.(.(.(.(.(.(.(.(.(.(.(.(.(.(.(.(.(.(.(.(.            (.(.(.(.(.(.(.(.(.(.(.(.(.(.(.(.(.(.(.(.(.",
"(.(.(.(.(.(.(.(.(.(.(.(.(.(.(.(.(.      o o X     . o o       (.(.(.(.(.(.(.(.(.(.(.(.(.(.(.(.(.",
"(.(.(.(.(.(.(.(.(.(.(.(.(.(.(.  . X # c a.x.G.I.Y.J.c.s.v # X .   (.(.(.(.(.(.(.(.(.(.(.(.(.(.(.",
"(.(.(.(.(.(.(.(.(.(.(.(.(.    X z j.L.I.I.I.Y.Y.Y.R.Y.R.E.R.c.v X     (.(.(.(.(.(.(.(.(.(.(.(.(.",
"(.(.(.(.(.(.(.(.(.(.(.(.  O w k.L.L.I.I.I.Y.Y.Y.R.R.E.E.!.E.E.E.N.j X   (.(.(.(.(.(.(.(.(.(.(.(.",
"(.(.(.(.(.(.(.(.(.(.    O W F.L.L.P.I.I.Y.Y.Y.R.E.E.E.!.!.!.!.!.E.E.g.o     (.(.(.(.(.(.(.(.(.(.",
"(.(.(.(.(.(.(.(.(.  . @ } A.F.L.P.P.I.I.Y.Y.R.R.E.!.!.!.!.!.!.!.!.!.E.M.% .   (.(.(.(.(.(.(.(.(.",
"(.(.(.(.(.(.(.(.(.  * %.7.F.F.L.L.I.I.Y.Y.Y.R.E.E.!.!.~.~.~.~.!.!.!.!.E.K.-   (.(.(.(.(.(.(.(.(.",
"(.(.(.(.(.(.(.(.  O | =.C.F.F.L.P.I.I.I.Y.R.R.E.!.!.~.~.~.~.~.~.!.!.!.R.R.N.o   (.(.(.(.(.(.(.(.",
"(.(.(.(.(.(.(.  O I =.=.D.F.L.L.P.I.Y.Y.Y.R.R.!.!.!.~.~.~././.~.~.!.!.!.E.Y.h.X   (.(.(.(.(.(.(.",
"(.(.(.(.(.(.(.X u =.=.;.F.F.L.L.P.I.I.Y.Y.E.E.!.!.~.~.~./././.~.~.!.!.E.E.R.Y.v . (.(.(.(.(.(.(.",
"(.(.(.(.(.(.  O $.=.=.>.D.F.F.P.P.I.I.Y.J.x j B.!.~.~.^.h.r M ^.~.!.!.E.E.R.Y.H.X   (.(.(.(.(.(.",
"(.(.(.(.(.(.X d =.=.=.8.F.F.L.L.P.I.I.Y.x     1 !.~.~.W.#     M ~.!.!.!.E.Y.Y.Y.) X (.(.(.(.(.(.",
"(.(.(.(.(.  . $.=.=.=.t.D.F.F.L.L.I.I.Y.o       B.!.~.f.      5 ~.!.!.E.R.R.Y.I.H..   (.(.(.(.(.",
"(.(.(.(.(.  > =.=.=.=.t.F.F.F.L.P.I.I.x.        i.!.~.M       o T.!.E.E.R.Y.Y.Y.I.4   (.(.(.(.(.",
"(.(.(.(.(.O V =.=.=.=.r.D.D.F.L.L.P.I.y.        b !.!.r         m.!.R.R.Y.Y.Y.I.I._ X (.(.(.(.(.",
"(.(.(.(.  O | =.=.=.=.8.D.F.F.F.L.I.I.x.        u.R.E.m         T.E.R.R.Y.Y.I.I.I.v.X   (.(.(.(.",
"(.(.(.(.  . &.=.=.=.=.>.D.F.F.F.L.I.P.I.X       N.R.E.d.      3 E.R.R.Y.Y.Y.I.I.P.L.    (.(.(.(.",
"(.(.(.(.  O =.=.=.=.=.-.D.D.F.F.F.L.L.L.z     1 Y.R.R.J.o     ) R.Y.Y.Y.Y.I.I.P.P.P.O   (.(.(.(.",
"(.(.(.(.  = =.=.=.=.=.=.C.D.D.F.F.L.P.P.H.z h b.Y.Y.Y.Y.h.e m Y.Y.Y.Y.I.I.I.I.L.L.F.<   (.(.(.(.",
"(.(.(.(.  : =.=.=.=.=.=.8.D.D.F.F.L.L.L.P.I.I.I.I.Y.Y.Y.Y.Y.Y.Y.Y.Y.I.I.I.I.L.L.L.F.2   (.(.(.(.",
"(.(.(.(.  @ =.=.=.=.=.=.-.D.D.D.F.F.F.L.P.P.I.I.I.I.I.Y.I.Y.I.I.I.I.I.I.I.L.L.L.L.F.$   (.(.(.(.",
"(.(.(.(.    =.=.=.=.=.=.=.r.D.D.D.F.F.F.F.P.L.P.P.I.I.I.I.I.I.I.I.I.L.I.L.L.L.F.F.F..   (.(.(.(.",
"(.(.(.(.  O $.=.=.=.=.=.=.-.A.D.D.D.F.F.L.F.L.P.L.P.I.P.P.I.P.I.I.L.P.L.L.F.F.F.F.V.    (.(.(.(.",
"(.(.(.(.  + P =.=.=.=.=.=.=.8.S.D.D.D.D.F.F.F.L.L.L.L.L.L.P.L.L.L.L.L.L.L.F.F.D.D.p.O   (.(.(.(.",
"(.(.(.(.(.  0 =.=.=.=.=.=.=.=.l.S.D.D.D.D.F.F.F.L.F.L.L.L.L.L.L.F.F.F.F.F.F.F.D.D.k   (.(.(.(.(.",
"(.(.(.(.(.  X *.=.=.=.=.=.=.=.-.C.S.D.D.D.D.D.F.F.F.F.F.F.L.F.F.F.F.F.F.D.D.D.D.S.o   (.(.(.(.(.",
"(.(.(.(.(.  O P =.=.=.=.=.=.=.=.-.C.S.S.D.D.D.D.D.F.D.F.F.F.D.F.F.D.D.D.D.D.D.S.p.O   (.(.(.(.(.",
"(.(.(.(.(.(.  = *.=.=.=.=.=.=.=.=.-.l.A.S.S.S.D.D.D.D.D.D.D.D.D.D.D.D.D.S.S.A.S.-   (.(.(.(.(.(.",
"(.(.(.(.(.(.  O D =.=.=.=.=.=.=.=.=.=.r.A.A.S.S.D.S.D.S.D.D.D.D.D.S.S.S.S.A.A./ X   (.(.(.(.(.(.",
"(.(.(.(.(.(.(.  @ $.=.=.=.=.=.=.=.=.=.=.;.t.A.A.S.S.A.S.S.S.S.S.S.A.S.A.A.A.e.+   (.(.(.(.(.(.(.",
"(.(.(.(.(.(.(.(.. > *.=.=.=.=.=.=.=.=.=.=.=.;.r.Z.S.A.A.A.A.A.A.A.A.A.Z.r.;.6 .   (.(.(.(.(.(.(.",
"(.(.(.(.(.(.(.(.  O 9 N 8 > : = > i D ] =.=.=.=.=.;.8.r.t.C.C.t.9.7.;.-.=.p X   (.(.(.(.(.(.(.(.",
"(.(.(.(.(.(.(.(.    O q J E W ,.~ A y * : K *.=.=.=.=.=.=.=.=.=.=.=.=.=.a O   (.(.(.(.(.(.(.(.(.",
"(.(.(.(.(.(.(.  X F #.1.3.4.5.6.q.w.w.0.R , @ S =.=.=.=.=.=.=.=.=.=.&.8 * . .   (.(.(.(.(.(.(.(.",
"(.(.(.(.(.(.  X Q +.@.#.3.4.4.6.w.w.w.0.6.4.E , 0 =.=.=.=.=.=.=.=.U = g 6.,.t X   (.(.(.(.(.(.(.",
"(.(.(.(.(.(.X C O.+.@.#.#.4.4.6.6.6.6.6.5.3.3.<.> i =.=.=.=.=.] 6 * ! 6.5.5.3.Z O X (.(.(.(.(.(.",
"(.(.(.(.(.  . Q { O.+.#.#.3.3.4.5.5.5.4.3.3.2.#.o.X %.=.| B : @ G 4.5.5.3.3.2.#.s = (.(.(.(.(.(.",
"(.(.(.(.(.  . [ { O.O.+.#.#.2.3.3.3.4.3.2.2.#.@.+.: & O @ q R 2.3.3.3.3.2.2.#.#. ..   (.(.(.(.(.",
"(.(.(.(.(.    Y [ { X.O.@.@.#.#.2.2.2.#.#.#.@.+.X.= C Q +.@.#.#.1.2.2.2.#.#.@.+.O.O   (.(.(.(.(.",
"(.(.(.(.(.  . u [ { { X.O.O.@.@.@.@.@.@.@.+.O.O.F X [ X.O.O.@.@.@.@.@.@.@.+.O.X.L .   (.(.(.(.(.",
"(.(.(.(.(.(.  . u Y { { X.X.X.O.+.+.O.O.O.X.Q 0 X F [ { ..X.X.O.O.O.O.O.O.X. .f .   (.(.(.(.(.(.",
"(.(.(.(.(.(.(.      O & = = = = = = = = = X       X = = = = = = = = = = = @ .     (.(.(.(.(.(.(.",
"(.(.(.(.(.(.(.(.                                                                (.(.(.(.(.(.(.(.",
"(.(.(.(.(.(.(.(.(.(.(.(.(.(.(.(.(.(.(.(.(.(.(.(.(.(.(.(.(.(.(.(.(.(.(.(.(.(.(.(.(.(.(.(.(.(.(.(.",
"(.(.(.(.(.(.(.(.(.(.(.(.(.(.(.(.(.(.(.(.(.(.(.(.(.(.(.(.(.(.(.(.(.(.(.(.(.(.(.(.(.(.(.(.(.(.(.(.",
"(.(.(.(.(.(.(.(.(.(.(.(.(.(.(.(.(.(.(.(.(.(.(.(.(.(.(.(.(.(.(.(.(.(.(.(.(.(.(.(.(.(.(.(.(.(.(.(."
};
